<mxfile host="app.diagrams.net" agent="Mozilla/5.0 (Windows NT 10.0; Win64; x64) AppleWebKit/537.36 (KHTML, like Gecko) Chrome/133.0.0.0 Safari/537.36" version="26.0.16">
  <diagram name="Página-1" id="Ak9r02H6mfEe0BIQiKck">
    <mxGraphModel dx="819" dy="441" grid="1" gridSize="10" guides="1" tooltips="1" connect="1" arrows="1" fold="1" page="1" pageScale="1" pageWidth="827" pageHeight="1169" math="0" shadow="0">
      <root>
        <mxCell id="0" />
        <mxCell id="1" parent="0" />
        <mxCell id="-8xBnZcwmEysZHi2TS6a-3" style="edgeStyle=orthogonalEdgeStyle;rounded=0;orthogonalLoop=1;jettySize=auto;html=1;exitX=1;exitY=0.5;exitDx=0;exitDy=0;entryX=0;entryY=0.5;entryDx=0;entryDy=0;" parent="1" source="-8xBnZcwmEysZHi2TS6a-1" target="-8xBnZcwmEysZHi2TS6a-2" edge="1">
          <mxGeometry relative="1" as="geometry" />
        </mxCell>
        <mxCell id="-8xBnZcwmEysZHi2TS6a-1" value="inicio" style="ellipse;whiteSpace=wrap;html=1;aspect=fixed;" parent="1" vertex="1">
          <mxGeometry x="30" y="80" width="80" height="80" as="geometry" />
        </mxCell>
        <mxCell id="-8xBnZcwmEysZHi2TS6a-5" value="" style="edgeStyle=orthogonalEdgeStyle;rounded=0;orthogonalLoop=1;jettySize=auto;html=1;" parent="1" source="-8xBnZcwmEysZHi2TS6a-2" target="-8xBnZcwmEysZHi2TS6a-4" edge="1">
          <mxGeometry relative="1" as="geometry" />
        </mxCell>
        <mxCell id="-8xBnZcwmEysZHi2TS6a-2" value="tela de cadastro usuario" style="whiteSpace=wrap;html=1;" parent="1" vertex="1">
          <mxGeometry x="160" y="90" width="120" height="60" as="geometry" />
        </mxCell>
        <mxCell id="O467FJwdF7BK_mbbdC4E-2" value="" style="edgeStyle=orthogonalEdgeStyle;rounded=0;orthogonalLoop=1;jettySize=auto;html=1;" edge="1" parent="1" source="-8xBnZcwmEysZHi2TS6a-4" target="O467FJwdF7BK_mbbdC4E-1">
          <mxGeometry relative="1" as="geometry" />
        </mxCell>
        <mxCell id="-8xBnZcwmEysZHi2TS6a-4" value="nome, usuário, senha e turma" style="whiteSpace=wrap;html=1;" parent="1" vertex="1">
          <mxGeometry x="320" y="90" width="120" height="60" as="geometry" />
        </mxCell>
        <mxCell id="O467FJwdF7BK_mbbdC4E-4" value="" style="edgeStyle=orthogonalEdgeStyle;rounded=0;orthogonalLoop=1;jettySize=auto;html=1;" edge="1" parent="1" source="O467FJwdF7BK_mbbdC4E-1" target="O467FJwdF7BK_mbbdC4E-3">
          <mxGeometry relative="1" as="geometry" />
        </mxCell>
        <mxCell id="O467FJwdF7BK_mbbdC4E-1" value="valida os parametros" style="whiteSpace=wrap;html=1;" vertex="1" parent="1">
          <mxGeometry x="480" y="90" width="120" height="60" as="geometry" />
        </mxCell>
        <mxCell id="O467FJwdF7BK_mbbdC4E-8" value="" style="edgeStyle=orthogonalEdgeStyle;rounded=0;orthogonalLoop=1;jettySize=auto;html=1;fontSize=20;" edge="1" parent="1" source="O467FJwdF7BK_mbbdC4E-3" target="O467FJwdF7BK_mbbdC4E-7">
          <mxGeometry relative="1" as="geometry" />
        </mxCell>
        <mxCell id="O467FJwdF7BK_mbbdC4E-12" value="sim" style="edgeLabel;html=1;align=center;verticalAlign=middle;resizable=0;points=[];fontSize=13;" vertex="1" connectable="0" parent="O467FJwdF7BK_mbbdC4E-8">
          <mxGeometry x="-0.2333" y="2" relative="1" as="geometry">
            <mxPoint y="2" as="offset" />
          </mxGeometry>
        </mxCell>
        <mxCell id="O467FJwdF7BK_mbbdC4E-10" value="" style="edgeStyle=orthogonalEdgeStyle;rounded=0;orthogonalLoop=1;jettySize=auto;html=1;" edge="1" parent="1" source="O467FJwdF7BK_mbbdC4E-3" target="O467FJwdF7BK_mbbdC4E-9">
          <mxGeometry relative="1" as="geometry" />
        </mxCell>
        <mxCell id="O467FJwdF7BK_mbbdC4E-11" value="não" style="edgeLabel;html=1;align=center;verticalAlign=middle;resizable=0;points=[];fontSize=14;" vertex="1" connectable="0" parent="O467FJwdF7BK_mbbdC4E-10">
          <mxGeometry x="-0.1" y="1" relative="1" as="geometry">
            <mxPoint y="-1" as="offset" />
          </mxGeometry>
        </mxCell>
        <mxCell id="O467FJwdF7BK_mbbdC4E-3" value="deu certo a validação?" style="rhombus;whiteSpace=wrap;html=1;" vertex="1" parent="1">
          <mxGeometry x="500" y="220" width="80" height="80" as="geometry" />
        </mxCell>
        <mxCell id="O467FJwdF7BK_mbbdC4E-7" value="leva para tela de login" style="whiteSpace=wrap;html=1;" vertex="1" parent="1">
          <mxGeometry x="640" y="230" width="120" height="60" as="geometry" />
        </mxCell>
        <mxCell id="O467FJwdF7BK_mbbdC4E-9" value="retorna novamente para a tela de cadastro" style="whiteSpace=wrap;html=1;" vertex="1" parent="1">
          <mxGeometry x="320" y="230" width="120" height="60" as="geometry" />
        </mxCell>
      </root>
    </mxGraphModel>
  </diagram>
</mxfile>
